<?xml version="1.0" encoding="UTF-8" standalone="no"?>
<svg
   height="16px"
   viewBox="0 0 16 16"
   width="16px"
   version="1.1"
   id="svg2"
   sodipodi:docname="mail.svg"
   inkscape:version="1.4.2 (ebf0e940d0, 2025-05-08)"
   xmlns:inkscape="http://www.inkscape.org/namespaces/inkscape"
   xmlns:sodipodi="http://sodipodi.sourceforge.net/DTD/sodipodi-0.dtd"
   xmlns="http://www.w3.org/2000/svg"
   xmlns:svg="http://www.w3.org/2000/svg">
  <defs
     id="defs2" />
  <sodipodi:namedview
     id="namedview2"
     pagecolor="#ffffff"
     bordercolor="#000000"
     borderopacity="0.25"
     inkscape:showpageshadow="2"
     inkscape:pageopacity="0.0"
     inkscape:pagecheckerboard="0"
     inkscape:deskcolor="#d1d1d1"
     inkscape:zoom="47.4375"
     inkscape:cx="8"
     inkscape:cy="8"
     inkscape:window-width="1920"
     inkscape:window-height="1011"
     inkscape:window-x="0"
     inkscape:window-y="0"
     inkscape:window-maximized="1"
     inkscape:current-layer="svg2" />
  <g
     fill="#2e3436"
     id="g2"
     style="fill:#000000;fill-opacity:1">
    <path
       d="m 1.800781 3.019531 c -0.257812 0.050781 -0.484375 0.207031 -0.632812 0.425781 c -0.304688 0.460938 -0.183594 1.082032 0.277343 1.386719 l 5.167969 3.445313 c 0.835938 0.558594 1.9375 0.558594 2.773438 0 l 5.167969 -3.445313 c 0.460937 -0.304687 0.582031 -0.925781 0.277343 -1.386719 c -0.304687 -0.460937 -0.925781 -0.582031 -1.386719 -0.277343 l -5.167968 3.445312 c -0.171875 0.113281 -0.382813 0.113281 -0.554688 0 l -5.167968 -3.445312 c -0.222657 -0.148438 -0.492188 -0.199219 -0.753907 -0.148438 z m 0 0"
       id="path1"
       style="fill:#000000;fill-opacity:1" />
    <path
       d="m 3 2 c -1.644531 0 -3 1.355469 -3 3 v 6 c 0 1.644531 1.355469 3 3 3 h 10 c 1.644531 0 3 -1.355469 3 -3 v -6 c 0 -1.644531 -1.355469 -3 -3 -3 z m 0 2 h 10 c 0.570312 0 1 0.429688 1 1 v 6 c 0 0.570312 -0.429688 1 -1 1 h -10 c -0.570312 0 -1 -0.429688 -1 -1 v -6 c 0 -0.570312 0.429688 -1 1 -1 z m 0 0"
       id="path2"
       style="fill:#000000;fill-opacity:1" />
  </g>
</svg>
